<svg fill="#0D5FF9" height="800px" width="800px" version="1.1" id="Capa_1" xmlns="http://www.w3.org/2000/svg"
	xmlns:xlink="http://www.w3.org/1999/xlink" viewBox="0 0 342.2 342.2" xml:space="preserve">
	<path
		d="M269.167,322.795H44.29c-4.418,0-8-3.582-8-8v-22.625h-5.407c-4.418,0-8-3.582-8-8s3.582-8,8-8h31.323c4.418,0,8,3.582,8,8
	s-3.582,8-8,8H52.29v14.625h208.877V172.83l-84.166,56.593c-11.367,7.645-29.6,7.36-41.509-0.647L52.29,172.83v52.886h9.916
	c4.418,0,8,3.582,8,8s-3.582,8-8,8H30.883c-4.418,0-8-3.582-8-8s3.582-8,8-8h5.407v-67.802c-0.001-0.074-0.001-0.148,0-0.222
	v-21.215c0-4.418,3.582-8,8-8h224.877c4.418,0,8,3.582,8,8v21.213c0.001,0.075,0.001,0.15,0,0.225v156.88
	C277.167,319.214,273.585,322.795,269.167,322.795z M52.29,153.549l92.13,61.949c6.557,4.409,17.61,4.711,23.653,0.647
	l93.094-62.597v-9.072H52.29V153.549z M105.533,288.923c-16.531,0-29.98-13.449-29.98-29.979c0-16.531,13.449-29.98,29.98-29.98
	c16.531,0,29.98,13.449,29.98,29.98C135.513,275.474,122.064,288.923,105.533,288.923z M105.533,244.963
	c-7.708,0-13.98,6.271-13.98,13.98c0,7.708,6.271,13.979,13.98,13.979s13.98-6.271,13.98-13.979
	C119.513,251.234,113.242,244.963,105.533,244.963z M334.2,281.74h-29.588c-4.418,0-8-3.582-8-8s3.582-8,8-8H326.2V35.405H136.921
	v68.657c0,4.418-3.582,8-8,8s-8-3.582-8-8V27.405c0-4.418,3.582-8,8-8H334.2c4.418,0,8,3.582,8,8V273.74
	C342.2,278.158,338.619,281.74,334.2,281.74z M57.249,266.943H8c-4.418,0-8-3.582-8-8s3.582-8,8-8h49.249c4.418,0,8,3.582,8,8
	S61.667,266.943,57.249,266.943z M297.406,248.463c-3.006,0-5.885-1.702-7.247-4.603c-1.877-4-0.157-8.764,3.842-10.641
	c2.201-1.033,4.57-4.363,4.57-9.233c0-4.869-2.369-8.198-4.57-9.231c-4-1.877-5.72-6.642-3.842-10.641s6.641-5.72,10.641-3.842
	c8.366,3.927,13.771,13.236,13.771,23.715c0,10.48-5.406,19.789-13.771,23.716C299.701,248.219,298.544,248.463,297.406,248.463z
	 M287.939,103.265H175.181c-4.418,0-8-3.582-8-8s3.582-8,8-8h112.759c4.418,0,8,3.582,8,8S292.358,103.265,287.939,103.265z
	 M266.138,70.428h-69.656c-4.418,0-8-3.582-8-8s3.582-8,8-8h69.656c4.418,0,8,3.582,8,8S270.557,70.428,266.138,70.428z" />
</svg>